HIERARCHY
ROOT Hips
{
   OFFSET 0.00000 0.00000 0.00000
   CHANNELS 6 Xposition Yposition Zposition Zrotation Xrotation Yrotation
   JOINT RightUpLeg
   {
      OFFSET -8.945800 -8.667070 0.101652
      CHANNELS 3 Zrotation Xrotation Yrotation
      JOINT RightLeg
      {
         OFFSET 0.000000 -44.422697 1.372700
         CHANNELS 3 Zrotation Xrotation Yrotation
         JOINT RightFoot
         {
            OFFSET 0.253549 -42.092399 -1.460590
            CHANNELS 3 Zrotation Xrotation Yrotation
            JOINT RightToes
            {
               OFFSET 0.040000 -4.415090 8.499099
               CHANNELS 3 Zrotation Xrotation Yrotation
               End Site
               {
                  OFFSET -0.080000 -0.137448 9.779790
               }
            }
         }
      }
   }
   JOINT Spine
   {
      OFFSET 0.000000 11.890501 0.000000
      CHANNELS 3 Zrotation Xrotation Yrotation
      JOINT Spine1
      {
         OFFSET 0.000000 25.657401 0.127663
         CHANNELS 3 Zrotation Xrotation Yrotation
         JOINT HEad
         {
            OFFSET 0.000000 8.734161 0.011341
            CHANNELS 3 Zrotation Xrotation Yrotation
            End Site
            {
               OFFSET -0.290000 12.774200 2.513950
            }
         }
         JOINT LeftShoulder1
         {
            OFFSET 8.990000 -0.362252 -0.220000
            CHANNELS 3 Zrotation Xrotation Yrotation
            JOINT LeftArm
            {
               OFFSET 10.282700 -0.003380 0.322123
               CHANNELS 3 Zrotation Xrotation Yrotation
               JOINT LeftForeArm
               {
                  OFFSET 32.766900 0.099144 -1.424340
                  CHANNELS 3 Zrotation Xrotation Yrotation
                  JOINT LeftHand
                  {
                     OFFSET 27.564301 0.085362 1.022160
                     CHANNELS 3 Zrotation Xrotation Yrotation
                     End Site
                     {
                        OFFSET 16.744301 -0.600000 1.502910
                     }
                  }
               }
            }
         }
         JOINT RightShoulder
         {
            OFFSET -8.990000 -0.362252 -0.220000
            CHANNELS 3 Zrotation Xrotation Yrotation
            JOINT RightArm
            {
               OFFSET -10.282700 -0.003380 0.322123
               CHANNELS 3 Zrotation Xrotation Yrotation
               JOINT RightForeArm
               {
                  OFFSET -32.897098 0.099144 -1.424340
                  CHANNELS 3 Zrotation Xrotation Yrotation
                  JOINT RightHand
                  {
                     OFFSET -27.492101 0.085362 1.022160
                     CHANNELS 3 Zrotation Xrotation Yrotation
                     End Site
                     {
                        OFFSET -16.631201 -0.600000 1.502910
                     }
                  }
               }
            }
         }
      }
   }
   JOINT LeftUpLeg
   {
      OFFSET 8.945800 -8.667070 0.101652
      CHANNELS 3 Zrotation Xrotation Yrotation
      JOINT LeftLeg
      {
         OFFSET 0.000000 -44.422697 1.372700
         CHANNELS 3 Zrotation Xrotation Yrotation
         JOINT LeftFoot
         {
            OFFSET -0.253549 -42.092399 -1.460590
            CHANNELS 3 Zrotation Xrotation Yrotation
            JOINT LeftToes
            {
               OFFSET -0.040000 -4.415090 8.499099
               CHANNELS 3 Zrotation Xrotation Yrotation
               End Site
               {
                  OFFSET 0.080000 -0.047448 9.779790
               }
            }
         }
      }
   }
}
MOTION
Frames: 7
Frame Time: 0.016667
-186.815316 105.309332 -410.231317 -14.712610 20.062477 -177.938285 -20.382442 17.588587 -86.570264 -26.218284 0.288008 -6.636935 -27.891124 1.906356 70.463681 2.353881 -5.563745 -1.419159 -29.065528 12.416159 28.353034 7.430998 18.295556 -20.261363 19.710814 21.776185 -2.931767 -5.589086 50.810351 -24.679610 25.590794 -55.656326 -19.633010 19.804721 -28.910203 -32.072051 -40.977853 -37.883675 -60.897338 20.586270 88.046889 27.196625 104.964646 170.118743 187.021221 5.580160 245.341679 72.518769 -2.553153 -6.698173 43.667172 11.999575 -2.645379 -108.053716 -18.214359 -22.144139 146.775998 -77.261058 15.716513 38.046602 -11.084182 -11.944506 -7.072738
-187.233846 105.513666 -409.523119 -13.916019 20.147788 -177.605491 -19.817167 16.454609 -89.942472 -27.155731 -0.865508 -6.092205 -28.968499 2.027560 71.431416 1.992602 -5.978123 -0.529152 -28.211792 15.813288 30.543902 8.643176 14.928927 -28.050397 17.934784 20.728038 1.453618 -4.268043 54.653586 -21.519360 22.922070 -59.257430 -21.259510 24.531113 -27.525695 -28.662387 -41.927202 -38.591252 -62.609113 13.765360 74.835965 31.951335 106.944049 184.639589 198.235722 2.742683 259.805260 66.860612 -1.114014 -4.942044 39.110753 12.058425 -6.772008 -106.660637 -17.856030 -23.111268 137.637123 -53.214448 17.878775 36.380337 -11.231687 -9.504537 -6.412826
-188.075025 105.056589 -409.168619 -12.836206 21.137532 -180.339711 -20.850008 15.415715 -90.139974 -28.250800 -1.074307 -5.807725 -29.767829 1.973336 72.517792 1.694078 -6.168601 0.323542 -24.402227 18.118684 35.240983 11.519727 11.523890 -35.887484 15.990590 16.869572 5.349627 -5.474777 57.422944 -19.532912 18.736858 -61.280580 -23.081422 28.887032 -27.501811 -26.706477 -45.283300 -39.507184 -65.818886 11.982687 67.305306 38.307594 115.700522 196.162883 208.050308 -0.002453 274.375912 67.367296 3.014809 -4.698359 43.388978 10.261038 -7.054706 -105.316681 -16.174861 -23.296450 131.161748 -29.186378 18.734678 35.542385 -11.382179 -7.222877 -5.949377
-189.179837 104.644593 -409.252008 -11.319516 23.384520 -181.949095 -21.298915 16.079638 -90.175887 -29.604113 -1.082575 -5.667758 -29.854296 2.555381 73.617971 1.512745 -5.938493 0.945815 -22.394445 18.697919 41.196406 12.252039 10.207302 -44.137301 13.943487 14.329124 8.794319 -5.962512 61.241115 -14.289545 15.047644 -63.778408 -25.567083 33.231568 -26.406150 -23.560531 -46.923301 -39.410229 -68.948328 8.219328 61.128595 40.747665 125.253457 205.868978 216.757433 -2.886108 287.787261 63.912894 2.908259 -3.675693 41.898764 12.884224 -3.459717 -105.861150 -12.948634 -21.594905 127.176770 -52.818034 13.115005 37.636422 -11.759013 -10.626057 -6.458724
-190.389287 104.404219 -409.623827 -9.354190 24.962267 -183.588627 -21.051253 16.658585 -90.526412 -30.484972 -1.747854 -4.897081 -29.888023 3.088383 74.748873 1.331591 -6.053333 1.614090 -19.745281 18.510101 47.220137 13.939999 9.598578 -52.441486 12.445732 11.636078 11.619548 -7.392940 65.373134 -10.690717 12.081770 -64.638069 -26.854757 37.676570 -25.676845 -19.607491 -49.892452 -39.765525 -71.923804 4.760542 58.064497 42.060250 136.324756 212.804201 225.836380 -6.703703 301.093207 59.468319 3.732522 -4.173713 42.223581 12.183848 -3.599128 -108.209287 -10.991964 -21.495717 125.097141 -41.020620 12.773672 38.268191 -11.826741 -12.703055 -7.325141
-191.669271 103.801020 -410.529054 -8.161075 26.297698 174.902047 -21.835714 16.846966 -90.990141 -31.939037 -1.940021 -4.322326 -30.008214 3.527630 75.481575 1.226185 -6.278462 1.947097 -16.271121 16.803094 52.618309 16.543480 8.261413 -61.766391 11.991084 8.149638 13.756734 -9.448994 69.560245 -8.663794 11.380072 -63.756169 -26.233179 41.054812 -26.517195 -16.106800 -51.739308 -39.617139 -75.863539 2.208519 57.499770 42.649122 148.755400 218.673602 234.790485 -10.613258 313.330475 57.101348 2.218739 -4.599508 40.660270 12.506019 -3.090391 -112.597642 -9.153940 -20.797175 124.675787 -45.927008 12.908515 39.190304 -11.515301 -14.707552 -9.049450
-193.050878 102.955721 -411.627153 -7.058145 26.220181 173.412410 -22.496131 16.035063 -92.337198 -32.926505 -2.414929 -3.295209 -30.283017 4.177276 76.331537 1.145153 -6.593220 2.359902 -13.248789 13.127308 59.859061 18.276598 5.915850 -69.981941 10.559435 4.383998 15.617864 -11.141236 73.202846 -6.756006 12.071931 -62.664137 -24.931230 45.047758 -27.912507 -12.560761 -54.016049 -39.564837 -80.882520 -0.384661 57.487503 42.949374 160.240391 222.943371 243.616865 -14.593744 325.169652 55.418447 0.979077 -6.444878 40.477166 11.965982 -4.387797 -117.352745 -7.693499 -20.112964 126.754145 -43.633052 13.088372 40.458895 -11.366207 -16.522255 -10.179575
